<svg xmlns="http://www.w3.org/2000/svg" xmlns:xlink="http://www.w3.org/1999/xlink" version="1.1" x="0px" y="0px" viewBox="0 0 100 125" enable-background="new 0 0 100 100" xml:space="preserve"><g><path d="M99.8,90.68H0.2V11h99.6V90.68z M48.34,17.64H6.84v66.4h41.5V17.64z M43.36,34.239H11.82V30.92h31.54V34.239z M43.36,37.56   v3.32H11.82v-3.32H43.36z M43.36,44.199v3.32H11.82v-3.32H43.36z M43.36,50.84v3.32H11.82v-3.32H43.36z M43.36,57.479v3.32H11.82   v-3.32H43.36z M43.36,64.12v3.319H11.82V64.12H43.36z M43.36,70.76v3.32H11.82v-3.32H43.36z M51.66,17.64v66.4h41.5v-66.4H51.66z    M56.64,34.239V30.92h31.54v3.319H56.64z M56.64,40.88v-3.32h31.54v3.32H56.64z M56.64,47.52v-3.32h31.54v3.32H56.64z M56.64,54.16   v-3.32h31.54v3.32H56.64z M56.64,60.8v-3.32h31.54v3.32H56.64z M56.64,67.439V64.12h31.54v3.319H56.64z M56.64,70.76h31.54v3.32   H56.64V70.76z"/></g><text x="0" y="115" fill="#000000" font-size="5px" font-weight="bold" font-family="'Helvetica Neue', Helvetica, Arial-Unicode, Arial, Sans-serif">Created by João Miranda</text><text x="0" y="120" fill="#000000" font-size="5px" font-weight="bold" font-family="'Helvetica Neue', Helvetica, Arial-Unicode, Arial, Sans-serif">from the Noun Project</text></svg>